# xmcd
#
# Track frame offsets:
# 150
# 24089
# 34555
# 44550
# 50633
# 58063
# 64613
# 69518
# 77949
# 84768
# 92325
# 95409
# 101717
# 128496
#
# Disc length: 1786 seconds
#
# Revision: 0
# Processed by: cddbd v1.4PL0 Copyright (c) Steve Scherf et al.
# Submitted via: Audion 3.0.2 (http://www.panic.com/audion/)
#
DISCID=a806f80e
DTITLE=The Mosquitoes - The Mosquitoes
DYEAR=1900
DGENRE=
TTITLE0=New One
TTITLE1=Special Powers
TTITLE2=Waiting For You
TTITLE3=Truly
TTITLE4=It's Only Play
TTITLE5=You Are, You Are, You Are
TTITLE6=Good
TTITLE7=Plumb Out of Luck
TTITLE8=Here She Comes
TTITLE9=Have You Seen Them
TTITLE10=Morningbird
TTITLE11=Adjustments
TTITLE12=(something)
TTITLE13=(Something)
EXTD=
EXTT0=
EXTT1=
EXTT2=
EXTT3=
EXTT4=
EXTT5=
EXTT6=
EXTT7=
EXTT8=
EXTT9=
EXTT10=
EXTT11=
EXTT12=
EXTT13=
PLAYORDER=
